<?xml version="1.0" encoding="UTF-8" standalone="no"?>
<!DOCTYPE svg PUBLIC "-//W3C//DTD SVG 1.1//EN"
 "http://www.w3.org/Graphics/SVG/1.1/DTD/svg11.dtd">
<!-- Generated by graphviz version 2.47.0 (20210316.0004)
 -->
<!-- Title: dbml Pages: 1 -->
<svg width="2961pt" height="2472pt"
 viewBox="0.00 0.00 2961.40 2472.18" xmlns="http://www.w3.org/2000/svg" xmlns:xlink="http://www.w3.org/1999/xlink">
<g id="graph0" class="graph" transform="scale(1 1) rotate(0) translate(4 2468.18)">
<title>dbml</title>
<!-- Client -->
<g id="Client" class="node">
<title>Client</title>
<ellipse fill="none" stroke="black" stroke-width="0" cx="2646.51" cy="-747.67" rx="306.77" ry="384.83"/>
<polygon fill="#1d71b8" stroke="transparent" points="2431.51,-957.67 2431.51,-1017.67 2861.51,-1017.67 2861.51,-957.67 2431.51,-957.67"/>
<polygon fill="none" stroke="#29235c" points="2431.51,-957.67 2431.51,-1017.67 2861.51,-1017.67 2861.51,-957.67 2431.51,-957.67"/>
<text text-anchor="start" x="2543.38" y="-978.87" font-family="Helvetica,sans-Serif" font-weight="bold" font-size="32.00" fill="#ffffff"> &#160;&#160;&#160;&#160;&#160;&#160;Client &#160;&#160;&#160;&#160;&#160;&#160;</text>
<polygon fill="#e7e2dd" stroke="transparent" points="2431.51,-897.67 2431.51,-957.67 2861.51,-957.67 2861.51,-897.67 2431.51,-897.67"/>
<polygon fill="none" stroke="#29235c" points="2431.51,-897.67 2431.51,-957.67 2861.51,-957.67 2861.51,-897.67 2431.51,-897.67"/>
<text text-anchor="start" x="2442.51" y="-918.87" font-family="Helvetica,sans-Serif" font-weight="bold" font-size="32.00" fill="#29235c">id</text>
<text text-anchor="start" x="2467.4" y="-918.87" font-family="Helvetica,sans-Serif" font-size="32.00" fill="#29235c"> &#160;&#160;&#160;</text>
<text text-anchor="start" x="2708.3" y="-918.87" font-family="Helvetica,sans-Serif" font-style="italic" font-size="32.00" fill="#29235c">INTEGER</text>
<polygon fill="#e7e2dd" stroke="transparent" points="2431.51,-837.67 2431.51,-897.67 2861.51,-897.67 2861.51,-837.67 2431.51,-837.67"/>
<polygon fill="none" stroke="#29235c" points="2431.51,-837.67 2431.51,-897.67 2861.51,-897.67 2861.51,-837.67 2431.51,-837.67"/>
<text text-anchor="start" x="2442.51" y="-857.87" font-family="Helvetica,sans-Serif" font-size="32.00" fill="#29235c">name &#160;&#160;&#160;</text>
<text text-anchor="start" x="2694.09" y="-858.87" font-family="Helvetica,sans-Serif" font-style="italic" font-size="32.00" fill="#29235c">VARCHAR</text>
<polygon fill="#e7e2dd" stroke="transparent" points="2431.51,-777.67 2431.51,-837.67 2861.51,-837.67 2861.51,-777.67 2431.51,-777.67"/>
<polygon fill="none" stroke="#29235c" points="2431.51,-777.67 2431.51,-837.67 2861.51,-837.67 2861.51,-777.67 2431.51,-777.67"/>
<text text-anchor="start" x="2442.51" y="-797.87" font-family="Helvetica,sans-Serif" font-size="32.00" fill="#29235c">email &#160;&#160;&#160;</text>
<text text-anchor="start" x="2694.09" y="-798.87" font-family="Helvetica,sans-Serif" font-style="italic" font-size="32.00" fill="#29235c">VARCHAR</text>
<polygon fill="#e7e2dd" stroke="transparent" points="2431.51,-717.67 2431.51,-777.67 2861.51,-777.67 2861.51,-717.67 2431.51,-717.67"/>
<polygon fill="none" stroke="#29235c" points="2431.51,-717.67 2431.51,-777.67 2861.51,-777.67 2861.51,-717.67 2431.51,-717.67"/>
<text text-anchor="start" x="2442.51" y="-737.87" font-family="Helvetica,sans-Serif" font-size="32.00" fill="#29235c">phone &#160;&#160;&#160;</text>
<text text-anchor="start" x="2694.09" y="-738.87" font-family="Helvetica,sans-Serif" font-style="italic" font-size="32.00" fill="#29235c">VARCHAR</text>
<polygon fill="#e7e2dd" stroke="transparent" points="2431.51,-657.67 2431.51,-717.67 2861.51,-717.67 2861.51,-657.67 2431.51,-657.67"/>
<polygon fill="none" stroke="#29235c" points="2431.51,-657.67 2431.51,-717.67 2861.51,-717.67 2861.51,-657.67 2431.51,-657.67"/>
<text text-anchor="start" x="2442.51" y="-677.87" font-family="Helvetica,sans-Serif" font-size="32.00" fill="#29235c">total_hours &#160;&#160;&#160;</text>
<text text-anchor="start" x="2708.3" y="-678.87" font-family="Helvetica,sans-Serif" font-style="italic" font-size="32.00" fill="#29235c">DECIMAL</text>
<polygon fill="#e7e2dd" stroke="transparent" points="2431.51,-597.67 2431.51,-657.67 2861.51,-657.67 2861.51,-597.67 2431.51,-597.67"/>
<polygon fill="none" stroke="#29235c" points="2431.51,-597.67 2431.51,-657.67 2861.51,-657.67 2861.51,-597.67 2431.51,-597.67"/>
<text text-anchor="start" x="2442.51" y="-617.87" font-family="Helvetica,sans-Serif" font-size="32.00" fill="#29235c">total_amount &#160;&#160;&#160;</text>
<text text-anchor="start" x="2708.3" y="-618.87" font-family="Helvetica,sans-Serif" font-style="italic" font-size="32.00" fill="#29235c">DECIMAL</text>
<polygon fill="#e7e2dd" stroke="transparent" points="2431.51,-537.67 2431.51,-597.67 2861.51,-597.67 2861.51,-537.67 2431.51,-537.67"/>
<polygon fill="none" stroke="#29235c" points="2431.51,-537.67 2431.51,-597.67 2861.51,-597.67 2861.51,-537.67 2431.51,-537.67"/>
<text text-anchor="start" x="2442.51" y="-557.87" font-family="Helvetica,sans-Serif" font-size="32.00" fill="#29235c">budget_amount &#160;&#160;&#160;</text>
<text text-anchor="start" x="2708.3" y="-558.87" font-family="Helvetica,sans-Serif" font-style="italic" font-size="32.00" fill="#29235c">DECIMAL</text>
<polygon fill="#e7e2dd" stroke="transparent" points="2431.51,-477.67 2431.51,-537.67 2861.51,-537.67 2861.51,-477.67 2431.51,-477.67"/>
<polygon fill="none" stroke="#29235c" points="2431.51,-477.67 2431.51,-537.67 2861.51,-537.67 2861.51,-477.67 2431.51,-477.67"/>
<text text-anchor="start" x="2442.35" y="-497.87" font-family="Helvetica,sans-Serif" font-size="32.00" fill="#29235c">is_over_budget &#160;&#160;&#160;</text>
<text text-anchor="start" x="2696.16" y="-498.87" font-family="Helvetica,sans-Serif" font-style="italic" font-size="32.00" fill="#29235c">BOOLEAN</text>
<polygon fill="none" stroke="#29235c" stroke-width="2" points="2430.51,-476.67 2430.51,-1018.67 2862.51,-1018.67 2862.51,-476.67 2430.51,-476.67"/>
</g>
<!-- Invoice -->
<g id="Invoice" class="node">
<title>Invoice</title>
<ellipse fill="none" stroke="black" stroke-width="0" cx="1110.1" cy="-1994.67" rx="369.63" ry="469.54"/>
<polygon fill="#1d71b8" stroke="transparent" points="851.1,-2264.67 851.1,-2324.67 1370.1,-2324.67 1370.1,-2264.67 851.1,-2264.67"/>
<polygon fill="none" stroke="#29235c" points="851.1,-2264.67 851.1,-2324.67 1370.1,-2324.67 1370.1,-2264.67 851.1,-2264.67"/>
<text text-anchor="start" x="997.67" y="-2285.87" font-family="Helvetica,sans-Serif" font-weight="bold" font-size="32.00" fill="#ffffff"> &#160;&#160;&#160;&#160;&#160;&#160;Invoice &#160;&#160;&#160;&#160;&#160;&#160;</text>
<polygon fill="#e7e2dd" stroke="transparent" points="851.1,-2204.67 851.1,-2264.67 1370.1,-2264.67 1370.1,-2204.67 851.1,-2204.67"/>
<polygon fill="none" stroke="#29235c" points="851.1,-2204.67 851.1,-2264.67 1370.1,-2264.67 1370.1,-2204.67 851.1,-2204.67"/>
<text text-anchor="start" x="862.1" y="-2225.87" font-family="Helvetica,sans-Serif" font-weight="bold" font-size="32.00" fill="#29235c">id</text>
<text text-anchor="start" x="886.98" y="-2225.87" font-family="Helvetica,sans-Serif" font-size="32.00" fill="#29235c"> &#160;&#160;&#160;</text>
<text text-anchor="start" x="1216.88" y="-2225.87" font-family="Helvetica,sans-Serif" font-style="italic" font-size="32.00" fill="#29235c">INTEGER</text>
<polygon fill="#e7e2dd" stroke="transparent" points="851.1,-2144.67 851.1,-2204.67 1370.1,-2204.67 1370.1,-2144.67 851.1,-2144.67"/>
<polygon fill="none" stroke="#29235c" points="851.1,-2144.67 851.1,-2204.67 1370.1,-2204.67 1370.1,-2144.67 851.1,-2144.67"/>
<text text-anchor="start" x="862.1" y="-2164.87" font-family="Helvetica,sans-Serif" font-size="32.00" fill="#29235c">invoice_date &#160;&#160;&#160;</text>
<text text-anchor="start" x="1273.76" y="-2165.87" font-family="Helvetica,sans-Serif" font-style="italic" font-size="32.00" fill="#29235c">DATE</text>
<polygon fill="#e7e2dd" stroke="transparent" points="851.1,-2084.67 851.1,-2144.67 1370.1,-2144.67 1370.1,-2084.67 851.1,-2084.67"/>
<polygon fill="none" stroke="#29235c" points="851.1,-2084.67 851.1,-2144.67 1370.1,-2144.67 1370.1,-2084.67 851.1,-2084.67"/>
<text text-anchor="start" x="862.1" y="-2104.87" font-family="Helvetica,sans-Serif" font-size="32.00" fill="#29235c">project_id &#160;&#160;&#160;</text>
<text text-anchor="start" x="1216.88" y="-2105.87" font-family="Helvetica,sans-Serif" font-style="italic" font-size="32.00" fill="#29235c">INTEGER</text>
<polygon fill="#e7e2dd" stroke="transparent" points="851.1,-2024.67 851.1,-2084.67 1370.1,-2084.67 1370.1,-2024.67 851.1,-2024.67"/>
<polygon fill="none" stroke="#29235c" points="851.1,-2024.67 851.1,-2084.67 1370.1,-2084.67 1370.1,-2024.67 851.1,-2024.67"/>
<text text-anchor="start" x="862.1" y="-2044.87" font-family="Helvetica,sans-Serif" font-size="32.00" fill="#29235c">invoice_amount &#160;&#160;&#160;</text>
<text text-anchor="start" x="1216.88" y="-2045.87" font-family="Helvetica,sans-Serif" font-style="italic" font-size="32.00" fill="#29235c">DECIMAL</text>
<polygon fill="#e7e2dd" stroke="transparent" points="851.1,-1964.67 851.1,-2024.67 1370.1,-2024.67 1370.1,-1964.67 851.1,-1964.67"/>
<polygon fill="none" stroke="#29235c" points="851.1,-1964.67 851.1,-2024.67 1370.1,-2024.67 1370.1,-1964.67 851.1,-1964.67"/>
<text text-anchor="start" x="862.1" y="-1984.87" font-family="Helvetica,sans-Serif" font-size="32.00" fill="#29235c">payment_total &#160;&#160;&#160;</text>
<text text-anchor="start" x="1216.88" y="-1985.87" font-family="Helvetica,sans-Serif" font-style="italic" font-size="32.00" fill="#29235c">DECIMAL</text>
<polygon fill="#e7e2dd" stroke="transparent" points="851.1,-1904.67 851.1,-1964.67 1370.1,-1964.67 1370.1,-1904.67 851.1,-1904.67"/>
<polygon fill="none" stroke="#29235c" points="851.1,-1904.67 851.1,-1964.67 1370.1,-1964.67 1370.1,-1904.67 851.1,-1904.67"/>
<text text-anchor="start" x="862.1" y="-1924.87" font-family="Helvetica,sans-Serif" font-size="32.00" fill="#29235c">invoice_balance &#160;&#160;&#160;</text>
<text text-anchor="start" x="1216.88" y="-1925.87" font-family="Helvetica,sans-Serif" font-style="italic" font-size="32.00" fill="#29235c">DECIMAL</text>
<polygon fill="#e7e2dd" stroke="transparent" points="851.1,-1844.67 851.1,-1904.67 1370.1,-1904.67 1370.1,-1844.67 851.1,-1844.67"/>
<polygon fill="none" stroke="#29235c" points="851.1,-1844.67 851.1,-1904.67 1370.1,-1904.67 1370.1,-1844.67 851.1,-1844.67"/>
<text text-anchor="start" x="862.1" y="-1864.87" font-family="Helvetica,sans-Serif" font-size="32.00" fill="#29235c">is_paid &#160;&#160;&#160;</text>
<text text-anchor="start" x="1204.4" y="-1865.87" font-family="Helvetica,sans-Serif" font-style="italic" font-size="32.00" fill="#29235c">BOOLEAN</text>
<polygon fill="#e7e2dd" stroke="transparent" points="851.1,-1784.67 851.1,-1844.67 1370.1,-1844.67 1370.1,-1784.67 851.1,-1784.67"/>
<polygon fill="none" stroke="#29235c" points="851.1,-1784.67 851.1,-1844.67 1370.1,-1844.67 1370.1,-1784.67 851.1,-1784.67"/>
<text text-anchor="start" x="862.1" y="-1804.87" font-family="Helvetica,sans-Serif" font-size="32.00" fill="#29235c">is_ready &#160;&#160;&#160;</text>
<text text-anchor="start" x="1204.4" y="-1805.87" font-family="Helvetica,sans-Serif" font-style="italic" font-size="32.00" fill="#29235c">BOOLEAN</text>
<polygon fill="#e7e2dd" stroke="transparent" points="851.1,-1724.67 851.1,-1784.67 1370.1,-1784.67 1370.1,-1724.67 851.1,-1724.67"/>
<polygon fill="none" stroke="#29235c" points="851.1,-1724.67 851.1,-1784.67 1370.1,-1784.67 1370.1,-1724.67 851.1,-1724.67"/>
<text text-anchor="start" x="862.1" y="-1744.87" font-family="Helvetica,sans-Serif" font-size="32.00" fill="#29235c">task_count &#160;&#160;&#160;</text>
<text text-anchor="start" x="1216.88" y="-1745.87" font-family="Helvetica,sans-Serif" font-style="italic" font-size="32.00" fill="#29235c">INTEGER</text>
<polygon fill="#e7e2dd" stroke="transparent" points="851.1,-1664.67 851.1,-1724.67 1370.1,-1724.67 1370.1,-1664.67 851.1,-1664.67"/>
<polygon fill="none" stroke="#29235c" points="851.1,-1664.67 851.1,-1724.67 1370.1,-1724.67 1370.1,-1664.67 851.1,-1664.67"/>
<text text-anchor="start" x="861.76" y="-1684.87" font-family="Helvetica,sans-Serif" font-size="32.00" fill="#29235c">completed_task_count &#160;&#160;&#160;</text>
<text text-anchor="start" x="1216.99" y="-1685.87" font-family="Helvetica,sans-Serif" font-style="italic" font-size="32.00" fill="#29235c">INTEGER</text>
<polygon fill="none" stroke="#29235c" stroke-width="2" points="849.6,-1663.67 849.6,-2325.67 1370.6,-2325.67 1370.6,-1663.67 849.6,-1663.67"/>
</g>
<!-- Project -->
<g id="Project" class="node">
<title>Project</title>
<ellipse fill="none" stroke="black" stroke-width="0" cx="1922.5" cy="-1171.67" rx="381.26" ry="384.83"/>
<polygon fill="#1d71b8" stroke="transparent" points="1655.5,-1381.67 1655.5,-1441.67 2190.5,-1441.67 2190.5,-1381.67 1655.5,-1381.67"/>
<polygon fill="none" stroke="#29235c" points="1655.5,-1381.67 1655.5,-1441.67 2190.5,-1441.67 2190.5,-1381.67 1655.5,-1381.67"/>
<text text-anchor="start" x="1810.97" y="-1402.87" font-family="Helvetica,sans-Serif" font-weight="bold" font-size="32.00" fill="#ffffff"> &#160;&#160;&#160;&#160;&#160;&#160;Project &#160;&#160;&#160;&#160;&#160;&#160;</text>
<polygon fill="#e7e2dd" stroke="transparent" points="1655.5,-1321.67 1655.5,-1381.67 2190.5,-1381.67 2190.5,-1321.67 1655.5,-1321.67"/>
<polygon fill="none" stroke="#29235c" points="1655.5,-1321.67 1655.5,-1381.67 2190.5,-1381.67 2190.5,-1321.67 1655.5,-1321.67"/>
<text text-anchor="start" x="1666.5" y="-1342.87" font-family="Helvetica,sans-Serif" font-weight="bold" font-size="32.00" fill="#29235c">id</text>
<text text-anchor="start" x="1691.39" y="-1342.87" font-family="Helvetica,sans-Serif" font-size="32.00" fill="#29235c"> &#160;&#160;&#160;</text>
<text text-anchor="start" x="2037.28" y="-1342.87" font-family="Helvetica,sans-Serif" font-style="italic" font-size="32.00" fill="#29235c">INTEGER</text>
<polygon fill="#e7e2dd" stroke="transparent" points="1655.5,-1261.67 1655.5,-1321.67 2190.5,-1321.67 2190.5,-1261.67 1655.5,-1261.67"/>
<polygon fill="none" stroke="#29235c" points="1655.5,-1261.67 1655.5,-1321.67 2190.5,-1321.67 2190.5,-1261.67 1655.5,-1261.67"/>
<text text-anchor="start" x="1666.5" y="-1281.87" font-family="Helvetica,sans-Serif" font-size="32.00" fill="#29235c">client_id &#160;&#160;&#160;</text>
<text text-anchor="start" x="2037.28" y="-1282.87" font-family="Helvetica,sans-Serif" font-style="italic" font-size="32.00" fill="#29235c">INTEGER</text>
<polygon fill="#e7e2dd" stroke="transparent" points="1655.5,-1201.67 1655.5,-1261.67 2190.5,-1261.67 2190.5,-1201.67 1655.5,-1201.67"/>
<polygon fill="none" stroke="#29235c" points="1655.5,-1201.67 1655.5,-1261.67 2190.5,-1261.67 2190.5,-1201.67 1655.5,-1201.67"/>
<text text-anchor="start" x="1666.5" y="-1221.87" font-family="Helvetica,sans-Serif" font-size="32.00" fill="#29235c">name &#160;&#160;&#160;</text>
<text text-anchor="start" x="2023.07" y="-1222.87" font-family="Helvetica,sans-Serif" font-style="italic" font-size="32.00" fill="#29235c">VARCHAR</text>
<polygon fill="#e7e2dd" stroke="transparent" points="1655.5,-1141.67 1655.5,-1201.67 2190.5,-1201.67 2190.5,-1141.67 1655.5,-1141.67"/>
<polygon fill="none" stroke="#29235c" points="1655.5,-1141.67 1655.5,-1201.67 2190.5,-1201.67 2190.5,-1141.67 1655.5,-1141.67"/>
<text text-anchor="start" x="1666.5" y="-1161.87" font-family="Helvetica,sans-Serif" font-size="32.00" fill="#29235c">total_project_hours &#160;&#160;&#160;</text>
<text text-anchor="start" x="2037.28" y="-1162.87" font-family="Helvetica,sans-Serif" font-style="italic" font-size="32.00" fill="#29235c">DECIMAL</text>
<polygon fill="#e7e2dd" stroke="transparent" points="1655.5,-1081.67 1655.5,-1141.67 2190.5,-1141.67 2190.5,-1081.67 1655.5,-1081.67"/>
<polygon fill="none" stroke="#29235c" points="1655.5,-1081.67 1655.5,-1141.67 2190.5,-1141.67 2190.5,-1081.67 1655.5,-1081.67"/>
<text text-anchor="start" x="1666.5" y="-1101.87" font-family="Helvetica,sans-Serif" font-size="32.00" fill="#29235c">total_project_amount &#160;&#160;&#160;</text>
<text text-anchor="start" x="2037.28" y="-1102.87" font-family="Helvetica,sans-Serif" font-style="italic" font-size="32.00" fill="#29235c">DECIMAL</text>
<polygon fill="#e7e2dd" stroke="transparent" points="1655.5,-1021.67 1655.5,-1081.67 2190.5,-1081.67 2190.5,-1021.67 1655.5,-1021.67"/>
<polygon fill="none" stroke="#29235c" points="1655.5,-1021.67 1655.5,-1081.67 2190.5,-1081.67 2190.5,-1021.67 1655.5,-1021.67"/>
<text text-anchor="start" x="1666.15" y="-1041.87" font-family="Helvetica,sans-Serif" font-size="32.00" fill="#29235c">project_budget_amount &#160;&#160;&#160;</text>
<text text-anchor="start" x="2037.39" y="-1042.87" font-family="Helvetica,sans-Serif" font-style="italic" font-size="32.00" fill="#29235c">DECIMAL</text>
<polygon fill="#e7e2dd" stroke="transparent" points="1655.5,-961.67 1655.5,-1021.67 2190.5,-1021.67 2190.5,-961.67 1655.5,-961.67"/>
<polygon fill="none" stroke="#29235c" points="1655.5,-961.67 1655.5,-1021.67 2190.5,-1021.67 2190.5,-961.67 1655.5,-961.67"/>
<text text-anchor="start" x="1666.5" y="-981.87" font-family="Helvetica,sans-Serif" font-size="32.00" fill="#29235c">is_over_budget &#160;&#160;&#160;</text>
<text text-anchor="start" x="2024.8" y="-982.87" font-family="Helvetica,sans-Serif" font-style="italic" font-size="32.00" fill="#29235c">BOOLEAN</text>
<polygon fill="#e7e2dd" stroke="transparent" points="1655.5,-901.67 1655.5,-961.67 2190.5,-961.67 2190.5,-901.67 1655.5,-901.67"/>
<polygon fill="none" stroke="#29235c" points="1655.5,-901.67 1655.5,-961.67 2190.5,-961.67 2190.5,-901.67 1655.5,-901.67"/>
<text text-anchor="start" x="1666.5" y="-921.87" font-family="Helvetica,sans-Serif" font-size="32.00" fill="#29235c">is_active &#160;&#160;&#160;</text>
<text text-anchor="start" x="2024.8" y="-922.87" font-family="Helvetica,sans-Serif" font-style="italic" font-size="32.00" fill="#29235c">BOOLEAN</text>
<polygon fill="none" stroke="#29235c" stroke-width="2" points="1654,-900.67 1654,-1442.67 2191,-1442.67 2191,-900.67 1654,-900.67"/>
</g>
<!-- Invoice&#45;&gt;Project -->
<!-- Invoice&#45;&gt;Project -->
<g id="edge2" class="edge">
<title>Invoice:e&#45;&gt;Project:w</title>
<path fill="none" stroke="#29235c" stroke-width="3" d="M1371.1,-2114.67C1548.52,-2114.67 1476.51,-1380.45 1644.44,-1352.49"/>
<polygon fill="#29235c" stroke="#29235c" stroke-width="3" points="1644.82,-1355.97 1654.5,-1351.67 1644.25,-1348.99 1644.82,-1355.97"/>
<text text-anchor="middle" x="1660.72" y="-1322.87" font-family="Helvetica,sans-Serif" font-size="32.00" fill="#29235c">*</text>
<text text-anchor="middle" x="1362.2" y="-2124.27" font-family="Helvetica,sans-Serif" font-size="32.00" fill="#29235c">1</text>
</g>
<!-- Project&#45;&gt;Client -->
<!-- Project&#45;&gt;Client -->
<g id="edge4" class="edge">
<title>Project:e&#45;&gt;Client:w</title>
<path fill="none" stroke="#29235c" stroke-width="3" d="M2191.5,-1291.67C2381.54,-1291.67 2242.21,-940.7 2420.35,-928.02"/>
<polygon fill="#29235c" stroke="#29235c" stroke-width="3" points="2420.64,-931.51 2430.51,-927.67 2420.4,-924.51 2420.64,-931.51"/>
<text text-anchor="middle" x="2436.74" y="-898.87" font-family="Helvetica,sans-Serif" font-size="32.00" fill="#29235c">*</text>
<text text-anchor="middle" x="2200.39" y="-1262.87" font-family="Helvetica,sans-Serif" font-size="32.00" fill="#29235c">1</text>
</g>
<!-- InvoiceItem -->
<g id="InvoiceItem" class="node">
<title>InvoiceItem</title>
<ellipse fill="none" stroke="black" stroke-width="0" cx="339.41" cy="-1465.67" rx="285.84" ry="257.27"/>
<polygon fill="#1d71b8" stroke="transparent" points="139.41,-1585.67 139.41,-1645.67 539.41,-1645.67 539.41,-1585.67 139.41,-1585.67"/>
<polygon fill="none" stroke="#29235c" points="139.41,-1585.67 139.41,-1645.67 539.41,-1645.67 539.41,-1585.67 139.41,-1585.67"/>
<text text-anchor="start" x="195.37" y="-1606.87" font-family="Helvetica,sans-Serif" font-weight="bold" font-size="32.00" fill="#ffffff"> &#160;&#160;&#160;&#160;&#160;&#160;InvoiceItem &#160;&#160;&#160;&#160;&#160;&#160;</text>
<polygon fill="#e7e2dd" stroke="transparent" points="139.41,-1525.67 139.41,-1585.67 539.41,-1585.67 539.41,-1525.67 139.41,-1525.67"/>
<polygon fill="none" stroke="#29235c" points="139.41,-1525.67 139.41,-1585.67 539.41,-1585.67 539.41,-1525.67 139.41,-1525.67"/>
<text text-anchor="start" x="150.41" y="-1546.87" font-family="Helvetica,sans-Serif" font-weight="bold" font-size="32.00" fill="#29235c">id</text>
<text text-anchor="start" x="175.3" y="-1546.87" font-family="Helvetica,sans-Serif" font-size="32.00" fill="#29235c"> &#160;&#160;&#160;</text>
<text text-anchor="start" x="386.19" y="-1546.87" font-family="Helvetica,sans-Serif" font-style="italic" font-size="32.00" fill="#29235c">INTEGER</text>
<polygon fill="#e7e2dd" stroke="transparent" points="139.41,-1465.67 139.41,-1525.67 539.41,-1525.67 539.41,-1465.67 139.41,-1465.67"/>
<polygon fill="none" stroke="#29235c" points="139.41,-1465.67 139.41,-1525.67 539.41,-1525.67 539.41,-1465.67 139.41,-1465.67"/>
<text text-anchor="start" x="150.41" y="-1485.87" font-family="Helvetica,sans-Serif" font-size="32.00" fill="#29235c">invoice_id &#160;&#160;&#160;</text>
<text text-anchor="start" x="386.19" y="-1486.87" font-family="Helvetica,sans-Serif" font-style="italic" font-size="32.00" fill="#29235c">INTEGER</text>
<polygon fill="#e7e2dd" stroke="transparent" points="139.41,-1405.67 139.41,-1465.67 539.41,-1465.67 539.41,-1405.67 139.41,-1405.67"/>
<polygon fill="none" stroke="#29235c" points="139.41,-1405.67 139.41,-1465.67 539.41,-1465.67 539.41,-1405.67 139.41,-1405.67"/>
<text text-anchor="start" x="150.41" y="-1425.87" font-family="Helvetica,sans-Serif" font-size="32.00" fill="#29235c">task_id &#160;&#160;&#160;</text>
<text text-anchor="start" x="386.19" y="-1426.87" font-family="Helvetica,sans-Serif" font-style="italic" font-size="32.00" fill="#29235c">INTEGER</text>
<polygon fill="#e7e2dd" stroke="transparent" points="139.41,-1345.67 139.41,-1405.67 539.41,-1405.67 539.41,-1345.67 139.41,-1345.67"/>
<polygon fill="none" stroke="#29235c" points="139.41,-1345.67 139.41,-1405.67 539.41,-1405.67 539.41,-1345.67 139.41,-1345.67"/>
<text text-anchor="start" x="150.41" y="-1365.87" font-family="Helvetica,sans-Serif" font-size="32.00" fill="#29235c">task_amount &#160;&#160;&#160;</text>
<text text-anchor="start" x="386.19" y="-1366.87" font-family="Helvetica,sans-Serif" font-style="italic" font-size="32.00" fill="#29235c">DECIMAL</text>
<polygon fill="#e7e2dd" stroke="transparent" points="139.41,-1285.67 139.41,-1345.67 539.41,-1345.67 539.41,-1285.67 139.41,-1285.67"/>
<polygon fill="none" stroke="#29235c" points="139.41,-1285.67 139.41,-1345.67 539.41,-1345.67 539.41,-1285.67 139.41,-1285.67"/>
<text text-anchor="start" x="150.39" y="-1305.87" font-family="Helvetica,sans-Serif" font-size="32.00" fill="#29235c">is_completed &#160;&#160;&#160;</text>
<text text-anchor="start" x="374.06" y="-1306.87" font-family="Helvetica,sans-Serif" font-style="italic" font-size="32.00" fill="#29235c">BOOLEAN</text>
<polygon fill="none" stroke="#29235c" stroke-width="2" points="138.41,-1284.67 138.41,-1646.67 540.41,-1646.67 540.41,-1284.67 138.41,-1284.67"/>
</g>
<!-- InvoiceItem&#45;&gt;Invoice -->
<!-- InvoiceItem&#45;&gt;Invoice -->
<g id="edge6" class="edge">
<title>InvoiceItem:e&#45;&gt;Invoice:w</title>
<path fill="none" stroke="#29235c" stroke-width="3" d="M540.41,-1495.67C893.05,-1495.67 501.77,-2220.3 839.88,-2234.46"/>
<polygon fill="#29235c" stroke="#29235c" stroke-width="3" points="840.03,-2237.96 850.1,-2234.67 840.17,-2230.96 840.03,-2237.96"/>
<text text-anchor="middle" x="843.87" y="-2244.27" font-family="Helvetica,sans-Serif" font-size="32.00" fill="#29235c">*</text>
<text text-anchor="middle" x="549.31" y="-1466.87" font-family="Helvetica,sans-Serif" font-size="32.00" fill="#29235c">1</text>
</g>
<!-- Task -->
<g id="Task" class="node">
<title>Task</title>
<ellipse fill="none" stroke="black" stroke-width="0" cx="1110.1" cy="-1079.67" rx="395.05" ry="427.19"/>
<polygon fill="#1d71b8" stroke="transparent" points="833.1,-1319.67 833.1,-1379.67 1388.1,-1379.67 1388.1,-1319.67 833.1,-1319.67"/>
<polygon fill="none" stroke="#29235c" points="833.1,-1319.67 833.1,-1379.67 1388.1,-1379.67 1388.1,-1319.67 833.1,-1319.67"/>
<text text-anchor="start" x="1013.68" y="-1340.87" font-family="Helvetica,sans-Serif" font-weight="bold" font-size="32.00" fill="#ffffff"> &#160;&#160;&#160;&#160;&#160;&#160;Task &#160;&#160;&#160;&#160;&#160;&#160;</text>
<polygon fill="#e7e2dd" stroke="transparent" points="833.1,-1259.67 833.1,-1319.67 1388.1,-1319.67 1388.1,-1259.67 833.1,-1259.67"/>
<polygon fill="none" stroke="#29235c" points="833.1,-1259.67 833.1,-1319.67 1388.1,-1319.67 1388.1,-1259.67 833.1,-1259.67"/>
<text text-anchor="start" x="844.1" y="-1280.87" font-family="Helvetica,sans-Serif" font-weight="bold" font-size="32.00" fill="#29235c">id</text>
<text text-anchor="start" x="868.98" y="-1280.87" font-family="Helvetica,sans-Serif" font-size="32.00" fill="#29235c"> &#160;&#160;&#160;</text>
<text text-anchor="start" x="1234.88" y="-1280.87" font-family="Helvetica,sans-Serif" font-style="italic" font-size="32.00" fill="#29235c">INTEGER</text>
<polygon fill="#e7e2dd" stroke="transparent" points="833.1,-1199.67 833.1,-1259.67 1388.1,-1259.67 1388.1,-1199.67 833.1,-1199.67"/>
<polygon fill="none" stroke="#29235c" points="833.1,-1199.67 833.1,-1259.67 1388.1,-1259.67 1388.1,-1199.67 833.1,-1199.67"/>
<text text-anchor="start" x="844.1" y="-1219.87" font-family="Helvetica,sans-Serif" font-size="32.00" fill="#29235c">project_id &#160;&#160;&#160;</text>
<text text-anchor="start" x="1234.88" y="-1220.87" font-family="Helvetica,sans-Serif" font-style="italic" font-size="32.00" fill="#29235c">INTEGER</text>
<polygon fill="#e7e2dd" stroke="transparent" points="833.1,-1139.67 833.1,-1199.67 1388.1,-1199.67 1388.1,-1139.67 833.1,-1139.67"/>
<polygon fill="none" stroke="#29235c" points="833.1,-1139.67 833.1,-1199.67 1388.1,-1199.67 1388.1,-1139.67 833.1,-1139.67"/>
<text text-anchor="start" x="844.1" y="-1159.87" font-family="Helvetica,sans-Serif" font-size="32.00" fill="#29235c">name &#160;&#160;&#160;</text>
<text text-anchor="start" x="1220.67" y="-1160.87" font-family="Helvetica,sans-Serif" font-style="italic" font-size="32.00" fill="#29235c">VARCHAR</text>
<polygon fill="#e7e2dd" stroke="transparent" points="833.1,-1079.67 833.1,-1139.67 1388.1,-1139.67 1388.1,-1079.67 833.1,-1079.67"/>
<polygon fill="none" stroke="#29235c" points="833.1,-1079.67 833.1,-1139.67 1388.1,-1139.67 1388.1,-1079.67 833.1,-1079.67"/>
<text text-anchor="start" x="844.1" y="-1099.87" font-family="Helvetica,sans-Serif" font-size="32.00" fill="#29235c">description &#160;&#160;&#160;</text>
<text text-anchor="start" x="1220.67" y="-1100.87" font-family="Helvetica,sans-Serif" font-style="italic" font-size="32.00" fill="#29235c">VARCHAR</text>
<polygon fill="#e7e2dd" stroke="transparent" points="833.1,-1019.67 833.1,-1079.67 1388.1,-1079.67 1388.1,-1019.67 833.1,-1019.67"/>
<polygon fill="none" stroke="#29235c" points="833.1,-1019.67 833.1,-1079.67 1388.1,-1079.67 1388.1,-1019.67 833.1,-1019.67"/>
<text text-anchor="start" x="843.98" y="-1039.87" font-family="Helvetica,sans-Serif" font-size="32.00" fill="#29235c">total_task_hours_worked &#160;&#160;&#160;</text>
<text text-anchor="start" x="1234.99" y="-1040.87" font-family="Helvetica,sans-Serif" font-style="italic" font-size="32.00" fill="#29235c">DECIMAL</text>
<polygon fill="#e7e2dd" stroke="transparent" points="833.1,-959.67 833.1,-1019.67 1388.1,-1019.67 1388.1,-959.67 833.1,-959.67"/>
<polygon fill="none" stroke="#29235c" points="833.1,-959.67 833.1,-1019.67 1388.1,-1019.67 1388.1,-959.67 833.1,-959.67"/>
<text text-anchor="start" x="844.1" y="-979.87" font-family="Helvetica,sans-Serif" font-size="32.00" fill="#29235c">total_task_amount_billed &#160;&#160;&#160;</text>
<text text-anchor="start" x="1234.88" y="-980.87" font-family="Helvetica,sans-Serif" font-style="italic" font-size="32.00" fill="#29235c">DECIMAL</text>
<polygon fill="#e7e2dd" stroke="transparent" points="833.1,-899.67 833.1,-959.67 1388.1,-959.67 1388.1,-899.67 833.1,-899.67"/>
<polygon fill="none" stroke="#29235c" points="833.1,-899.67 833.1,-959.67 1388.1,-959.67 1388.1,-899.67 833.1,-899.67"/>
<text text-anchor="start" x="844.1" y="-919.87" font-family="Helvetica,sans-Serif" font-size="32.00" fill="#29235c">task_budget_hours &#160;&#160;&#160;</text>
<text text-anchor="start" x="1234.88" y="-920.87" font-family="Helvetica,sans-Serif" font-style="italic" font-size="32.00" fill="#29235c">DECIMAL</text>
<polygon fill="#e7e2dd" stroke="transparent" points="833.1,-839.67 833.1,-899.67 1388.1,-899.67 1388.1,-839.67 833.1,-839.67"/>
<polygon fill="none" stroke="#29235c" points="833.1,-839.67 833.1,-899.67 1388.1,-899.67 1388.1,-839.67 833.1,-839.67"/>
<text text-anchor="start" x="844.1" y="-859.87" font-family="Helvetica,sans-Serif" font-size="32.00" fill="#29235c">is_over_budget &#160;&#160;&#160;</text>
<text text-anchor="start" x="1222.4" y="-860.87" font-family="Helvetica,sans-Serif" font-style="italic" font-size="32.00" fill="#29235c">BOOLEAN</text>
<polygon fill="#e7e2dd" stroke="transparent" points="833.1,-779.67 833.1,-839.67 1388.1,-839.67 1388.1,-779.67 833.1,-779.67"/>
<polygon fill="none" stroke="#29235c" points="833.1,-779.67 833.1,-839.67 1388.1,-839.67 1388.1,-779.67 833.1,-779.67"/>
<text text-anchor="start" x="844.1" y="-799.87" font-family="Helvetica,sans-Serif" font-size="32.00" fill="#29235c">is_completed &#160;&#160;&#160;</text>
<text text-anchor="start" x="1222.4" y="-800.87" font-family="Helvetica,sans-Serif" font-style="italic" font-size="32.00" fill="#29235c">BOOLEAN</text>
<polygon fill="none" stroke="#29235c" stroke-width="2" points="831.6,-778.67 831.6,-1380.67 1388.6,-1380.67 1388.6,-778.67 831.6,-778.67"/>
</g>
<!-- InvoiceItem&#45;&gt;Task -->
<!-- InvoiceItem&#45;&gt;Task -->
<g id="edge8" class="edge">
<title>InvoiceItem:e&#45;&gt;Task:w</title>
<path fill="none" stroke="#29235c" stroke-width="3" d="M540.41,-1435.67C681.84,-1435.67 686.95,-1296.71 821.73,-1289.92"/>
<polygon fill="#29235c" stroke="#29235c" stroke-width="3" points="822.18,-1293.41 832.1,-1289.67 822.01,-1286.41 822.18,-1293.41"/>
<text text-anchor="middle" x="825.87" y="-1260.87" font-family="Helvetica,sans-Serif" font-size="32.00" fill="#29235c">*</text>
<text text-anchor="middle" x="549.31" y="-1406.87" font-family="Helvetica,sans-Serif" font-size="32.00" fill="#29235c">1</text>
</g>
<!-- Task&#45;&gt;Project -->
<!-- Task&#45;&gt;Project -->
<g id="edge10" class="edge">
<title>Task:e&#45;&gt;Project:w</title>
<path fill="none" stroke="#29235c" stroke-width="3" d="M1389.1,-1229.67C1515.49,-1229.67 1524.29,-1345.32 1644.48,-1351.42"/>
<polygon fill="#29235c" stroke="#29235c" stroke-width="3" points="1644.41,-1354.92 1654.5,-1351.67 1644.59,-1347.92 1644.41,-1354.92"/>
<text text-anchor="middle" x="1660.72" y="-1361.27" font-family="Helvetica,sans-Serif" font-size="32.00" fill="#29235c">*</text>
<text text-anchor="middle" x="1380.2" y="-1200.87" font-family="Helvetica,sans-Serif" font-size="32.00" fill="#29235c">1</text>
</g>
<!-- Payment -->
<g id="Payment" class="node">
<title>Payment</title>
<ellipse fill="none" stroke="black" stroke-width="0" cx="339.41" cy="-2144.67" rx="246.56" ry="257.27"/>
<polygon fill="#1d71b8" stroke="transparent" points="167.41,-2264.67 167.41,-2324.67 512.41,-2324.67 512.41,-2264.67 167.41,-2264.67"/>
<polygon fill="none" stroke="#29235c" points="167.41,-2264.67 167.41,-2324.67 512.41,-2324.67 512.41,-2264.67 167.41,-2264.67"/>
<text text-anchor="start" x="214.54" y="-2285.87" font-family="Helvetica,sans-Serif" font-weight="bold" font-size="32.00" fill="#ffffff"> &#160;&#160;&#160;&#160;&#160;&#160;Payment &#160;&#160;&#160;&#160;&#160;&#160;</text>
<polygon fill="#e7e2dd" stroke="transparent" points="167.41,-2204.67 167.41,-2264.67 512.41,-2264.67 512.41,-2204.67 167.41,-2204.67"/>
<polygon fill="none" stroke="#29235c" points="167.41,-2204.67 167.41,-2264.67 512.41,-2264.67 512.41,-2204.67 167.41,-2204.67"/>
<text text-anchor="start" x="178.41" y="-2225.87" font-family="Helvetica,sans-Serif" font-weight="bold" font-size="32.00" fill="#29235c">id</text>
<text text-anchor="start" x="203.3" y="-2225.87" font-family="Helvetica,sans-Serif" font-size="32.00" fill="#29235c"> &#160;&#160;&#160;</text>
<text text-anchor="start" x="359.19" y="-2225.87" font-family="Helvetica,sans-Serif" font-style="italic" font-size="32.00" fill="#29235c">INTEGER</text>
<polygon fill="#e7e2dd" stroke="transparent" points="167.41,-2144.67 167.41,-2204.67 512.41,-2204.67 512.41,-2144.67 167.41,-2144.67"/>
<polygon fill="none" stroke="#29235c" points="167.41,-2144.67 167.41,-2204.67 512.41,-2204.67 512.41,-2144.67 167.41,-2144.67"/>
<text text-anchor="start" x="178.41" y="-2164.87" font-family="Helvetica,sans-Serif" font-size="32.00" fill="#29235c">invoice_id &#160;&#160;&#160;</text>
<text text-anchor="start" x="359.19" y="-2165.87" font-family="Helvetica,sans-Serif" font-style="italic" font-size="32.00" fill="#29235c">INTEGER</text>
<polygon fill="#e7e2dd" stroke="transparent" points="167.41,-2084.67 167.41,-2144.67 512.41,-2144.67 512.41,-2084.67 167.41,-2084.67"/>
<polygon fill="none" stroke="#29235c" points="167.41,-2084.67 167.41,-2144.67 512.41,-2144.67 512.41,-2084.67 167.41,-2084.67"/>
<text text-anchor="start" x="178.41" y="-2104.87" font-family="Helvetica,sans-Serif" font-size="32.00" fill="#29235c">amount &#160;&#160;&#160;</text>
<text text-anchor="start" x="359.19" y="-2105.87" font-family="Helvetica,sans-Serif" font-style="italic" font-size="32.00" fill="#29235c">DECIMAL</text>
<polygon fill="#e7e2dd" stroke="transparent" points="167.41,-2024.67 167.41,-2084.67 512.41,-2084.67 512.41,-2024.67 167.41,-2024.67"/>
<polygon fill="none" stroke="#29235c" points="167.41,-2024.67 167.41,-2084.67 512.41,-2084.67 512.41,-2024.67 167.41,-2024.67"/>
<text text-anchor="start" x="178.25" y="-2044.87" font-family="Helvetica,sans-Serif" font-size="32.00" fill="#29235c">payment_date &#160;&#160;&#160;</text>
<text text-anchor="start" x="416.25" y="-2045.87" font-family="Helvetica,sans-Serif" font-style="italic" font-size="32.00" fill="#29235c">DATE</text>
<polygon fill="#e7e2dd" stroke="transparent" points="167.41,-1964.67 167.41,-2024.67 512.41,-2024.67 512.41,-1964.67 167.41,-1964.67"/>
<polygon fill="none" stroke="#29235c" points="167.41,-1964.67 167.41,-2024.67 512.41,-2024.67 512.41,-1964.67 167.41,-1964.67"/>
<text text-anchor="start" x="178.41" y="-1984.87" font-family="Helvetica,sans-Serif" font-size="32.00" fill="#29235c">notes &#160;&#160;&#160;</text>
<text text-anchor="start" x="344.99" y="-1985.87" font-family="Helvetica,sans-Serif" font-style="italic" font-size="32.00" fill="#29235c">VARCHAR</text>
<polygon fill="none" stroke="#29235c" stroke-width="2" points="165.91,-1963.67 165.91,-2325.67 512.91,-2325.67 512.91,-1963.67 165.91,-1963.67"/>
</g>
<!-- Payment&#45;&gt;Invoice -->
<!-- Payment&#45;&gt;Invoice -->
<g id="edge12" class="edge">
<title>Payment:e&#45;&gt;Invoice:w</title>
<path fill="none" stroke="#29235c" stroke-width="3" d="M513.41,-2174.67C661.99,-2174.67 696.57,-2232 840.03,-2234.58"/>
<polygon fill="#29235c" stroke="#29235c" stroke-width="3" points="840.06,-2238.08 850.1,-2234.67 840.13,-2231.08 840.06,-2238.08"/>
<text text-anchor="middle" x="843.87" y="-2205.87" font-family="Helvetica,sans-Serif" font-size="32.00" fill="#29235c">*</text>
<text text-anchor="middle" x="522.31" y="-2184.27" font-family="Helvetica,sans-Serif" font-size="32.00" fill="#29235c">1</text>
</g>
<!-- Person -->
<g id="Person" class="node">
<title>Person</title>
<ellipse fill="none" stroke="black" stroke-width="0" cx="1922.5" cy="-384.67" rx="345.14" ry="384.83"/>
<polygon fill="#1d71b8" stroke="transparent" points="1680.5,-594.67 1680.5,-654.67 2164.5,-654.67 2164.5,-594.67 1680.5,-594.67"/>
<polygon fill="none" stroke="#29235c" points="1680.5,-594.67 1680.5,-654.67 2164.5,-654.67 2164.5,-594.67 1680.5,-594.67"/>
<text text-anchor="start" x="1809.57" y="-615.87" font-family="Helvetica,sans-Serif" font-weight="bold" font-size="32.00" fill="#ffffff"> &#160;&#160;&#160;&#160;&#160;&#160;Person &#160;&#160;&#160;&#160;&#160;&#160;</text>
<polygon fill="#e7e2dd" stroke="transparent" points="1680.5,-534.67 1680.5,-594.67 2164.5,-594.67 2164.5,-534.67 1680.5,-534.67"/>
<polygon fill="none" stroke="#29235c" points="1680.5,-534.67 1680.5,-594.67 2164.5,-594.67 2164.5,-534.67 1680.5,-534.67"/>
<text text-anchor="start" x="1691.5" y="-555.87" font-family="Helvetica,sans-Serif" font-weight="bold" font-size="32.00" fill="#29235c">id</text>
<text text-anchor="start" x="1716.39" y="-555.87" font-family="Helvetica,sans-Serif" font-size="32.00" fill="#29235c"> &#160;&#160;&#160;</text>
<text text-anchor="start" x="2011.28" y="-555.87" font-family="Helvetica,sans-Serif" font-style="italic" font-size="32.00" fill="#29235c">INTEGER</text>
<polygon fill="#e7e2dd" stroke="transparent" points="1680.5,-474.67 1680.5,-534.67 2164.5,-534.67 2164.5,-474.67 1680.5,-474.67"/>
<polygon fill="none" stroke="#29235c" points="1680.5,-474.67 1680.5,-534.67 2164.5,-534.67 2164.5,-474.67 1680.5,-474.67"/>
<text text-anchor="start" x="1691.5" y="-494.87" font-family="Helvetica,sans-Serif" font-size="32.00" fill="#29235c">client_id &#160;&#160;&#160;</text>
<text text-anchor="start" x="2011.28" y="-495.87" font-family="Helvetica,sans-Serif" font-style="italic" font-size="32.00" fill="#29235c">INTEGER</text>
<polygon fill="#e7e2dd" stroke="transparent" points="1680.5,-414.67 1680.5,-474.67 2164.5,-474.67 2164.5,-414.67 1680.5,-414.67"/>
<polygon fill="none" stroke="#29235c" points="1680.5,-414.67 1680.5,-474.67 2164.5,-474.67 2164.5,-414.67 1680.5,-414.67"/>
<text text-anchor="start" x="1691.5" y="-434.87" font-family="Helvetica,sans-Serif" font-size="32.00" fill="#29235c">name &#160;&#160;&#160;</text>
<text text-anchor="start" x="1997.07" y="-435.87" font-family="Helvetica,sans-Serif" font-style="italic" font-size="32.00" fill="#29235c">VARCHAR</text>
<polygon fill="#e7e2dd" stroke="transparent" points="1680.5,-354.67 1680.5,-414.67 2164.5,-414.67 2164.5,-354.67 1680.5,-354.67"/>
<polygon fill="none" stroke="#29235c" points="1680.5,-354.67 1680.5,-414.67 2164.5,-414.67 2164.5,-354.67 1680.5,-354.67"/>
<text text-anchor="start" x="1691.5" y="-374.87" font-family="Helvetica,sans-Serif" font-size="32.00" fill="#29235c">email &#160;&#160;&#160;</text>
<text text-anchor="start" x="1997.07" y="-375.87" font-family="Helvetica,sans-Serif" font-style="italic" font-size="32.00" fill="#29235c">VARCHAR</text>
<polygon fill="#e7e2dd" stroke="transparent" points="1680.5,-294.67 1680.5,-354.67 2164.5,-354.67 2164.5,-294.67 1680.5,-294.67"/>
<polygon fill="none" stroke="#29235c" points="1680.5,-294.67 1680.5,-354.67 2164.5,-354.67 2164.5,-294.67 1680.5,-294.67"/>
<text text-anchor="start" x="1691.5" y="-314.87" font-family="Helvetica,sans-Serif" font-size="32.00" fill="#29235c">phone &#160;&#160;&#160;</text>
<text text-anchor="start" x="1997.07" y="-315.87" font-family="Helvetica,sans-Serif" font-style="italic" font-size="32.00" fill="#29235c">VARCHAR</text>
<polygon fill="#e7e2dd" stroke="transparent" points="1680.5,-234.67 1680.5,-294.67 2164.5,-294.67 2164.5,-234.67 1680.5,-234.67"/>
<polygon fill="none" stroke="#29235c" points="1680.5,-234.67 1680.5,-294.67 2164.5,-294.67 2164.5,-234.67 1680.5,-234.67"/>
<text text-anchor="start" x="1691.5" y="-254.87" font-family="Helvetica,sans-Serif" font-size="32.00" fill="#29235c">billing_rate &#160;&#160;&#160;</text>
<text text-anchor="start" x="2011.28" y="-255.87" font-family="Helvetica,sans-Serif" font-style="italic" font-size="32.00" fill="#29235c">DECIMAL</text>
<polygon fill="#e7e2dd" stroke="transparent" points="1680.5,-174.67 1680.5,-234.67 2164.5,-234.67 2164.5,-174.67 1680.5,-174.67"/>
<polygon fill="none" stroke="#29235c" points="1680.5,-174.67 1680.5,-234.67 2164.5,-234.67 2164.5,-174.67 1680.5,-174.67"/>
<text text-anchor="start" x="1691.44" y="-194.87" font-family="Helvetica,sans-Serif" font-size="32.00" fill="#29235c">total_hours_entered &#160;&#160;&#160;</text>
<text text-anchor="start" x="2011.39" y="-195.87" font-family="Helvetica,sans-Serif" font-style="italic" font-size="32.00" fill="#29235c">DECIMAL</text>
<polygon fill="#e7e2dd" stroke="transparent" points="1680.5,-114.67 1680.5,-174.67 2164.5,-174.67 2164.5,-114.67 1680.5,-114.67"/>
<polygon fill="none" stroke="#29235c" points="1680.5,-114.67 1680.5,-174.67 2164.5,-174.67 2164.5,-114.67 1680.5,-114.67"/>
<text text-anchor="start" x="1691.5" y="-134.87" font-family="Helvetica,sans-Serif" font-size="32.00" fill="#29235c">total_amount_billed &#160;&#160;&#160;</text>
<text text-anchor="start" x="2011.28" y="-135.87" font-family="Helvetica,sans-Serif" font-style="italic" font-size="32.00" fill="#29235c">DECIMAL</text>
<polygon fill="none" stroke="#29235c" stroke-width="2" points="1679.5,-113.67 1679.5,-655.67 2165.5,-655.67 2165.5,-113.67 1679.5,-113.67"/>
</g>
<!-- Person&#45;&gt;Client -->
<!-- Person&#45;&gt;Client -->
<g id="edge14" class="edge">
<title>Person:e&#45;&gt;Client:w</title>
<path fill="none" stroke="#29235c" stroke-width="3" d="M2165.5,-504.67C2383.88,-504.67 2214.15,-914.55 2420.4,-927.36"/>
<polygon fill="#29235c" stroke="#29235c" stroke-width="3" points="2420.41,-930.86 2430.51,-927.67 2420.62,-923.86 2420.41,-930.86"/>
<text text-anchor="middle" x="2436.74" y="-937.27" font-family="Helvetica,sans-Serif" font-size="32.00" fill="#29235c">*</text>
<text text-anchor="middle" x="2174.39" y="-475.87" font-family="Helvetica,sans-Serif" font-size="32.00" fill="#29235c">1</text>
</g>
<!-- Timesheet -->
<g id="Timesheet" class="node">
<title>Timesheet</title>
<ellipse fill="none" stroke="black" stroke-width="0" cx="339.41" cy="-739.67" rx="339.32" ry="384.83"/>
<polygon fill="#1d71b8" stroke="transparent" points="101.41,-949.67 101.41,-1009.67 577.41,-1009.67 577.41,-949.67 101.41,-949.67"/>
<polygon fill="none" stroke="#29235c" points="101.41,-949.67 101.41,-1009.67 577.41,-1009.67 577.41,-949.67 101.41,-949.67"/>
<text text-anchor="start" x="202.49" y="-970.87" font-family="Helvetica,sans-Serif" font-weight="bold" font-size="32.00" fill="#ffffff"> &#160;&#160;&#160;&#160;&#160;&#160;Timesheet &#160;&#160;&#160;&#160;&#160;&#160;</text>
<polygon fill="#e7e2dd" stroke="transparent" points="101.41,-889.67 101.41,-949.67 577.41,-949.67 577.41,-889.67 101.41,-889.67"/>
<polygon fill="none" stroke="#29235c" points="101.41,-889.67 101.41,-949.67 577.41,-949.67 577.41,-889.67 101.41,-889.67"/>
<text text-anchor="start" x="112.41" y="-910.87" font-family="Helvetica,sans-Serif" font-weight="bold" font-size="32.00" fill="#29235c">id</text>
<text text-anchor="start" x="137.3" y="-910.87" font-family="Helvetica,sans-Serif" font-size="32.00" fill="#29235c"> &#160;&#160;&#160;</text>
<text text-anchor="start" x="424.19" y="-910.87" font-family="Helvetica,sans-Serif" font-style="italic" font-size="32.00" fill="#29235c">INTEGER</text>
<polygon fill="#e7e2dd" stroke="transparent" points="101.41,-829.67 101.41,-889.67 577.41,-889.67 577.41,-829.67 101.41,-829.67"/>
<polygon fill="none" stroke="#29235c" points="101.41,-829.67 101.41,-889.67 577.41,-889.67 577.41,-829.67 101.41,-829.67"/>
<text text-anchor="start" x="112.41" y="-849.87" font-family="Helvetica,sans-Serif" font-size="32.00" fill="#29235c">task_id &#160;&#160;&#160;</text>
<text text-anchor="start" x="424.19" y="-850.87" font-family="Helvetica,sans-Serif" font-style="italic" font-size="32.00" fill="#29235c">INTEGER</text>
<polygon fill="#e7e2dd" stroke="transparent" points="101.41,-769.67 101.41,-829.67 577.41,-829.67 577.41,-769.67 101.41,-769.67"/>
<polygon fill="none" stroke="#29235c" points="101.41,-769.67 101.41,-829.67 577.41,-829.67 577.41,-769.67 101.41,-769.67"/>
<text text-anchor="start" x="112.41" y="-789.87" font-family="Helvetica,sans-Serif" font-size="32.00" fill="#29235c">person_id &#160;&#160;&#160;</text>
<text text-anchor="start" x="424.19" y="-790.87" font-family="Helvetica,sans-Serif" font-style="italic" font-size="32.00" fill="#29235c">INTEGER</text>
<polygon fill="#e7e2dd" stroke="transparent" points="101.41,-709.67 101.41,-769.67 577.41,-769.67 577.41,-709.67 101.41,-709.67"/>
<polygon fill="none" stroke="#29235c" points="101.41,-709.67 101.41,-769.67 577.41,-769.67 577.41,-709.67 101.41,-709.67"/>
<text text-anchor="start" x="112.41" y="-729.87" font-family="Helvetica,sans-Serif" font-size="32.00" fill="#29235c">date_worked &#160;&#160;&#160;</text>
<text text-anchor="start" x="481.08" y="-730.87" font-family="Helvetica,sans-Serif" font-style="italic" font-size="32.00" fill="#29235c">DATE</text>
<polygon fill="#e7e2dd" stroke="transparent" points="101.41,-649.67 101.41,-709.67 577.41,-709.67 577.41,-649.67 101.41,-649.67"/>
<polygon fill="none" stroke="#29235c" points="101.41,-649.67 101.41,-709.67 577.41,-709.67 577.41,-649.67 101.41,-649.67"/>
<text text-anchor="start" x="112.41" y="-669.87" font-family="Helvetica,sans-Serif" font-size="32.00" fill="#29235c">hours_worked &#160;&#160;&#160;</text>
<text text-anchor="start" x="424.19" y="-670.87" font-family="Helvetica,sans-Serif" font-style="italic" font-size="32.00" fill="#29235c">DECIMAL</text>
<polygon fill="#e7e2dd" stroke="transparent" points="101.41,-589.67 101.41,-649.67 577.41,-649.67 577.41,-589.67 101.41,-589.67"/>
<polygon fill="none" stroke="#29235c" points="101.41,-589.67 101.41,-649.67 577.41,-649.67 577.41,-589.67 101.41,-589.67"/>
<text text-anchor="start" x="112.41" y="-609.87" font-family="Helvetica,sans-Serif" font-size="32.00" fill="#29235c">billing_rate &#160;&#160;&#160;</text>
<text text-anchor="start" x="424.19" y="-610.87" font-family="Helvetica,sans-Serif" font-style="italic" font-size="32.00" fill="#29235c">DECIMAL</text>
<polygon fill="#e7e2dd" stroke="transparent" points="101.41,-529.67 101.41,-589.67 577.41,-589.67 577.41,-529.67 101.41,-529.67"/>
<polygon fill="none" stroke="#29235c" points="101.41,-529.67 101.41,-589.67 577.41,-589.67 577.41,-529.67 101.41,-529.67"/>
<text text-anchor="start" x="111.92" y="-549.87" font-family="Helvetica,sans-Serif" font-size="32.00" fill="#29235c">total_amount_billed &#160;&#160;&#160;</text>
<text text-anchor="start" x="424.3" y="-550.87" font-family="Helvetica,sans-Serif" font-style="italic" font-size="32.00" fill="#29235c">DECIMAL</text>
<polygon fill="#e7e2dd" stroke="transparent" points="101.41,-469.67 101.41,-529.67 577.41,-529.67 577.41,-469.67 101.41,-469.67"/>
<polygon fill="none" stroke="#29235c" points="101.41,-469.67 101.41,-529.67 577.41,-529.67 577.41,-469.67 101.41,-469.67"/>
<text text-anchor="start" x="112.41" y="-489.87" font-family="Helvetica,sans-Serif" font-size="32.00" fill="#29235c">is_billable &#160;&#160;&#160;</text>
<text text-anchor="start" x="411.71" y="-490.87" font-family="Helvetica,sans-Serif" font-style="italic" font-size="32.00" fill="#29235c">BOOLEAN</text>
<polygon fill="none" stroke="#29235c" stroke-width="2" points="100.41,-468.67 100.41,-1010.67 578.41,-1010.67 578.41,-468.67 100.41,-468.67"/>
</g>
<!-- Timesheet&#45;&gt;Task -->
<!-- Timesheet&#45;&gt;Task -->
<g id="edge18" class="edge">
<title>Timesheet:e&#45;&gt;Task:w</title>
<path fill="none" stroke="#29235c" stroke-width="3" d="M578.41,-859.67C796.84,-859.67 616.04,-1276.33 821.99,-1289.35"/>
<polygon fill="#29235c" stroke="#29235c" stroke-width="3" points="821.99,-1292.86 832.1,-1289.67 822.21,-1285.86 821.99,-1292.86"/>
<text text-anchor="middle" x="825.87" y="-1299.27" font-family="Helvetica,sans-Serif" font-size="32.00" fill="#29235c">*</text>
<text text-anchor="middle" x="587.31" y="-830.87" font-family="Helvetica,sans-Serif" font-size="32.00" fill="#29235c">1</text>
</g>
<!-- Timesheet&#45;&gt;Person -->
<!-- Timesheet&#45;&gt;Person -->
<g id="edge16" class="edge">
<title>Timesheet:e&#45;&gt;Person:w</title>
<path fill="none" stroke="#29235c" stroke-width="3" d="M578.41,-799.67C683.09,-799.67 622.9,-657.74 714.82,-607.67 1088.76,-403.96 1247.84,-562.15 1669.49,-564.64"/>
<polygon fill="#29235c" stroke="#29235c" stroke-width="3" points="1669.49,-568.14 1679.5,-564.67 1669.51,-561.14 1669.49,-568.14"/>
<text text-anchor="middle" x="1685.72" y="-535.87" font-family="Helvetica,sans-Serif" font-size="32.00" fill="#29235c">*</text>
<text text-anchor="middle" x="587.31" y="-770.87" font-family="Helvetica,sans-Serif" font-size="32.00" fill="#29235c">1</text>
</g>
</g>
</svg>
